<?xml version="1.0" encoding="UTF-8"?>
<svg id="Layer_2" data-name="Layer 2" xmlns="http://www.w3.org/2000/svg" viewBox="0 0 974.14 580">
  <defs>
    <style>
      .cls-1 {
        stroke-width: 0px;
      }
    </style>
  </defs>
  <g id="Layer_2-2" data-name="Layer 2">
    <path class="cls-1" d="m736.75,114.78v3.51c0,146.4,0,292.8.03,439.21,0,5.35-1.02,10.27-4.39,14.56-3.76,4.79-8.68,7.79-14.72,7.83-25.41.17-50.83.12-76.25.05-9.85-.03-18.9-9.2-19.23-19.2-.03-.92-.02-1.85-.02-2.78,0-146.62,0-293.23,0-439.85v-3.22c-.84-.04-1.59-.1-2.33-.1-95.61,0-191.23,0-286.84.05-1.12,0-2.52.57-3.31,1.36-39.52,39.41-78.98,78.87-118.44,118.33-.44.44-.84.91-1.64,1.79h3.07c67.85,0,135.69,0,203.54,0,8.99,0,16.09,3.52,20.02,11.82,1.35,2.85,2.07,6.26,2.09,9.42.17,24.06.13,48.11.08,72.17-.03,12.41-9.06,21.3-21.43,21.3-67.42,0-134.84,0-202.26,0h-2.89c.77.84,1.21,1.36,1.68,1.84,10.34,10.39,20.69,20.78,31.03,31.18,11.79,11.86,23.57,23.73,35.34,35.61,14.63,14.76,29.26,29.51,43.85,44.31,1.15,1.16,2.29,1.6,3.91,1.6,81.09-.04,162.18.04,243.27-.11,11.16-.02,21.18,8.55,21.28,20.79.09,9.82.03,19.64.02,29.47-.02,14.87.14,29.75-.13,44.62-.2,11.11-9.4,19.64-20.53,19.64-95.11,0-190.23,0-285.34,0-5.91,0-10.97-2.2-15.1-6.28-8.96-8.86-17.8-17.83-26.67-26.77-11.64-11.71-23.26-23.43-34.89-35.16-15.63-15.77-31.26-31.54-46.89-47.3-15.43-15.57-30.86-31.13-46.29-46.7-15.58-15.72-31.15-31.45-46.74-47.15-21.02-21.16-42.07-42.29-63.11-63.43-7.74-7.78-8.68-19.1-2.26-27.92.5-.68,1.1-1.3,1.7-1.9,10.14-10.1,20.3-20.17,30.42-30.27C116.21,167.35,196.05,87.64,275.85,7.88,281.18,2.55,287.22,0,294.85,0c219.35.08,438.69.07,658.04.07,10.93,0,19.14,6.83,21.06,17.56.19,1.04.18,2.12.18,3.19,0,24.41.01,48.82,0,73.24,0,11.02-8.3,19.87-19.25,20.53-2.13.13-4.26.19-6.39.19-69.48,0-138.97,0-208.45,0h-3.29ZM623.04,4.6c-109.36,0-218.71.04-328.07-.09-6.73,0-11.85,2.3-16.46,6.92C194.71,95.24,110.87,179.01,27.03,262.78c-4.78,4.78-9.71,9.4-14.47,14.19-2.09,2.1-4.36,4.21-5.81,6.74-4.05,7.08-2.73,14.72,3.15,20.61,26.17,26.27,52.35,52.53,78.5,78.82,15.66,15.74,31.27,31.53,46.9,47.3,15.33,15.47,30.65,30.94,45.99,46.4,18.54,18.69,37.1,37.38,55.65,56.06,11.99,12.07,24.05,24.06,35.93,36.24,4.3,4.41,9.24,6.45,15.34,6.45,93.91-.04,187.81-.03,281.72-.03.64,0,1.28.02,1.92,0,8.97-.27,15.75-7.24,15.75-16.19,0-24.48,0-48.97,0-73.45,0-1.06-.02-2.15-.25-3.18-1.81-7.92-8.17-12.85-16.5-12.85-81.52,0-163.04,0-244.56.03-2.05,0-3.66-.46-5.12-2-4.5-4.75-9.09-9.41-13.69-14.07-15.42-15.58-30.85-31.14-46.29-46.71-18.29-18.44-36.6-36.87-54.88-55.32-1.04-1.05-2.73-1.93-1.95-3.85.82-2.01,2.72-1.48,4.27-1.48,69.13-.02,138.26-.02,207.39-.02,1.14,0,2.28,0,3.41-.08,7.53-.48,14.19-7.29,14.37-14.85.14-5.83.1-11.67.1-17.51,0-19.07.08-38.15-.11-57.22-.1-9.45-7.12-15.95-16.6-15.95-70.27,0-140.54,0-210.81-.01-1.57,0-3.51.57-4.36-1.34-.88-1.97.97-2.92,2.07-4.02,41.06-41.08,82.15-82.14,123.19-123.25,1.49-1.49,2.97-2.08,5.05-2.08,96.7.04,193.39.04,290.09.04.57,0,1.14,0,1.71.01,1.55.03,2.37.8,2.41,2.36.02.78.01,1.57.01,2.35,0,147.33,0,294.66,0,441.99,0,.71-.02,1.42,0,2.14.25,9.76,7.11,16.51,16.83,16.51,24.14.01,48.27.03,72.41-.04,1.95,0,4.01-.31,5.83-.98,6.87-2.54,10.65-8.29,10.65-15.8,0-147.83,0-295.66,0-443.49,0-.85,0-1.71.02-2.56.05-1.62.86-2.49,2.53-2.49.71,0,1.42,0,2.14,0,71.84,0,143.67,0,215.51,0,10.52,0,17.3-6.75,17.31-17.32.02-23.91.02-47.83-.02-71.74,0-1.47-.15-3-.55-4.41-2.25-7.86-8.07-12.14-16.37-12.14-109.93,0-219.85,0-329.78,0Z"/>
  </g>
</svg>